<mxfile host="Electron" modified="2024-04-29T13:50:33.971Z" agent="Mozilla/5.0 (Windows NT 10.0; Win64; x64) AppleWebKit/537.36 (KHTML, like Gecko) draw.io/24.1.0 Chrome/120.0.6099.109 Electron/28.1.0 Safari/537.36" etag="gVFvBAHEgYvoygD0d_Wz" version="24.1.0" type="device">
  <diagram name="第 1 页" id="qHWpvj56xuUQH6j1yFP9">
    <mxGraphModel dx="1000" dy="599" grid="1" gridSize="10" guides="1" tooltips="1" connect="1" arrows="1" fold="1" page="1" pageScale="1" pageWidth="827" pageHeight="1169" math="0" shadow="0">
      <root>
        <mxCell id="0" />
        <mxCell id="1" parent="0" />
        <mxCell id="ZAZMOjvzsu7jSgVwGaOS-12" value="" style="shape=table;startSize=0;container=1;collapsible=0;childLayout=tableLayout;fontSize=16;" parent="1" vertex="1">
          <mxGeometry x="960" y="120" width="258" height="40" as="geometry" />
        </mxCell>
        <mxCell id="ZAZMOjvzsu7jSgVwGaOS-13" value="" style="shape=tableRow;horizontal=0;startSize=0;swimlaneHead=0;swimlaneBody=0;strokeColor=inherit;top=0;left=0;bottom=0;right=0;collapsible=0;dropTarget=0;fillColor=none;points=[[0,0.5],[1,0.5]];portConstraint=eastwest;fontSize=16;" parent="ZAZMOjvzsu7jSgVwGaOS-12" vertex="1">
          <mxGeometry width="258" height="40" as="geometry" />
        </mxCell>
        <mxCell id="ZAZMOjvzsu7jSgVwGaOS-14" value="&lt;u&gt;mId&lt;/u&gt;" style="shape=partialRectangle;html=1;whiteSpace=wrap;connectable=0;strokeColor=inherit;overflow=hidden;fillColor=none;top=0;left=0;bottom=0;right=0;pointerEvents=1;fontSize=16;" parent="ZAZMOjvzsu7jSgVwGaOS-13" vertex="1">
          <mxGeometry width="129" height="40" as="geometry">
            <mxRectangle width="129" height="40" as="alternateBounds" />
          </mxGeometry>
        </mxCell>
        <mxCell id="ZAZMOjvzsu7jSgVwGaOS-15" value="o_rate" style="shape=partialRectangle;html=1;whiteSpace=wrap;connectable=0;strokeColor=inherit;overflow=hidden;fillColor=none;top=0;left=0;bottom=0;right=0;pointerEvents=1;fontSize=16;" parent="ZAZMOjvzsu7jSgVwGaOS-13" vertex="1">
          <mxGeometry x="129" width="129" height="40" as="geometry">
            <mxRectangle width="129" height="40" as="alternateBounds" />
          </mxGeometry>
        </mxCell>
        <mxCell id="ZAZMOjvzsu7jSgVwGaOS-27" value="" style="shape=table;startSize=0;container=1;collapsible=0;childLayout=tableLayout;fontSize=16;" parent="1" vertex="1">
          <mxGeometry x="960" y="200" width="258" height="40" as="geometry" />
        </mxCell>
        <mxCell id="ZAZMOjvzsu7jSgVwGaOS-28" value="" style="shape=tableRow;horizontal=0;startSize=0;swimlaneHead=0;swimlaneBody=0;strokeColor=inherit;top=0;left=0;bottom=0;right=0;collapsible=0;dropTarget=0;fillColor=none;points=[[0,0.5],[1,0.5]];portConstraint=eastwest;fontSize=16;" parent="ZAZMOjvzsu7jSgVwGaOS-27" vertex="1">
          <mxGeometry width="258" height="40" as="geometry" />
        </mxCell>
        <mxCell id="ZAZMOjvzsu7jSgVwGaOS-29" value="&lt;u&gt;mId&lt;/u&gt;" style="shape=partialRectangle;html=1;whiteSpace=wrap;connectable=0;strokeColor=inherit;overflow=hidden;fillColor=none;top=0;left=0;bottom=0;right=0;pointerEvents=1;fontSize=16;" parent="ZAZMOjvzsu7jSgVwGaOS-28" vertex="1">
          <mxGeometry width="129" height="40" as="geometry">
            <mxRectangle width="129" height="40" as="alternateBounds" />
          </mxGeometry>
        </mxCell>
        <mxCell id="ZAZMOjvzsu7jSgVwGaOS-30" value="c_rate" style="shape=partialRectangle;html=1;whiteSpace=wrap;connectable=0;strokeColor=inherit;overflow=hidden;fillColor=none;top=0;left=0;bottom=0;right=0;pointerEvents=1;fontSize=16;" parent="ZAZMOjvzsu7jSgVwGaOS-28" vertex="1">
          <mxGeometry x="129" width="129" height="40" as="geometry">
            <mxRectangle width="129" height="40" as="alternateBounds" />
          </mxGeometry>
        </mxCell>
        <mxCell id="ZAZMOjvzsu7jSgVwGaOS-38" value="" style="shape=table;startSize=0;container=1;collapsible=0;childLayout=tableLayout;fontSize=16;" parent="1" vertex="1">
          <mxGeometry x="1341" y="280" width="903" height="40" as="geometry" />
        </mxCell>
        <mxCell id="ZAZMOjvzsu7jSgVwGaOS-39" value="" style="shape=tableRow;horizontal=0;startSize=0;swimlaneHead=0;swimlaneBody=0;strokeColor=inherit;top=0;left=0;bottom=0;right=0;collapsible=0;dropTarget=0;fillColor=none;points=[[0,0.5],[1,0.5]];portConstraint=eastwest;fontSize=16;" parent="ZAZMOjvzsu7jSgVwGaOS-38" vertex="1">
          <mxGeometry width="903" height="40" as="geometry" />
        </mxCell>
        <mxCell id="ZAZMOjvzsu7jSgVwGaOS-40" value="&lt;u&gt;mId&lt;/u&gt;" style="shape=partialRectangle;html=1;whiteSpace=wrap;connectable=0;strokeColor=inherit;overflow=hidden;fillColor=none;top=0;left=0;bottom=0;right=0;pointerEvents=1;fontSize=16;" parent="ZAZMOjvzsu7jSgVwGaOS-39" vertex="1">
          <mxGeometry width="129" height="40" as="geometry">
            <mxRectangle width="129" height="40" as="alternateBounds" />
          </mxGeometry>
        </mxCell>
        <mxCell id="ZAZMOjvzsu7jSgVwGaOS-41" value="re_seq" style="shape=partialRectangle;html=1;whiteSpace=wrap;connectable=0;strokeColor=inherit;overflow=hidden;fillColor=none;top=0;left=0;bottom=0;right=0;pointerEvents=1;fontSize=16;" parent="ZAZMOjvzsu7jSgVwGaOS-39" vertex="1">
          <mxGeometry x="129" width="129" height="40" as="geometry">
            <mxRectangle width="129" height="40" as="alternateBounds" />
          </mxGeometry>
        </mxCell>
        <mxCell id="ZAZMOjvzsu7jSgVwGaOS-42" value="text" style="shape=partialRectangle;html=1;whiteSpace=wrap;connectable=0;strokeColor=inherit;overflow=hidden;fillColor=none;top=0;left=0;bottom=0;right=0;pointerEvents=1;fontSize=16;" parent="ZAZMOjvzsu7jSgVwGaOS-39" vertex="1">
          <mxGeometry x="258" width="129" height="40" as="geometry">
            <mxRectangle width="129" height="40" as="alternateBounds" />
          </mxGeometry>
        </mxCell>
        <mxCell id="ZAZMOjvzsu7jSgVwGaOS-43" value="environment" style="shape=partialRectangle;html=1;whiteSpace=wrap;connectable=0;strokeColor=inherit;overflow=hidden;fillColor=none;top=0;left=0;bottom=0;right=0;pointerEvents=1;fontSize=16;" parent="ZAZMOjvzsu7jSgVwGaOS-39" vertex="1">
          <mxGeometry x="387" width="129" height="40" as="geometry">
            <mxRectangle width="129" height="40" as="alternateBounds" />
          </mxGeometry>
        </mxCell>
        <mxCell id="ZAZMOjvzsu7jSgVwGaOS-44" value="attitude" style="shape=partialRectangle;html=1;whiteSpace=wrap;connectable=0;strokeColor=inherit;overflow=hidden;fillColor=none;top=0;left=0;bottom=0;right=0;pointerEvents=1;fontSize=16;" parent="ZAZMOjvzsu7jSgVwGaOS-39" vertex="1">
          <mxGeometry x="516" width="129" height="40" as="geometry">
            <mxRectangle width="129" height="40" as="alternateBounds" />
          </mxGeometry>
        </mxCell>
        <mxCell id="ZAZMOjvzsu7jSgVwGaOS-45" value="facilities" style="shape=partialRectangle;html=1;whiteSpace=wrap;connectable=0;strokeColor=inherit;overflow=hidden;fillColor=none;top=0;left=0;bottom=0;right=0;pointerEvents=1;fontSize=16;" parent="ZAZMOjvzsu7jSgVwGaOS-39" vertex="1">
          <mxGeometry x="645" width="129" height="40" as="geometry">
            <mxRectangle width="129" height="40" as="alternateBounds" />
          </mxGeometry>
        </mxCell>
        <mxCell id="ZAZMOjvzsu7jSgVwGaOS-421" value="rent_house" style="shape=partialRectangle;html=1;whiteSpace=wrap;connectable=0;strokeColor=inherit;overflow=hidden;fillColor=none;top=0;left=0;bottom=0;right=0;pointerEvents=1;fontSize=16;" parent="ZAZMOjvzsu7jSgVwGaOS-39" vertex="1">
          <mxGeometry x="774" width="129" height="40" as="geometry">
            <mxRectangle width="129" height="40" as="alternateBounds" />
          </mxGeometry>
        </mxCell>
        <mxCell id="ZAZMOjvzsu7jSgVwGaOS-94" value="&lt;b style=&quot;font-size: 14px;&quot;&gt;Customers&lt;/b&gt;" style="text;html=1;align=center;verticalAlign=middle;whiteSpace=wrap;rounded=0;fontSize=14;" parent="1" vertex="1">
          <mxGeometry x="860" y="200" width="80" height="40" as="geometry" />
        </mxCell>
        <mxCell id="ZAZMOjvzsu7jSgVwGaOS-95" value="Owner" style="text;html=1;align=center;verticalAlign=middle;whiteSpace=wrap;rounded=0;fontStyle=1;fontSize=14;" parent="1" vertex="1">
          <mxGeometry x="860" y="120" width="80" height="40" as="geometry" />
        </mxCell>
        <mxCell id="ZAZMOjvzsu7jSgVwGaOS-96" value="Reveiw" style="text;html=1;align=center;verticalAlign=middle;whiteSpace=wrap;rounded=0;fontStyle=1;fontSize=14;" parent="1" vertex="1">
          <mxGeometry x="1241" y="280" width="80" height="40" as="geometry" />
        </mxCell>
        <mxCell id="ZAZMOjvzsu7jSgVwGaOS-103" value="" style="endArrow=classic;html=1;rounded=0;exitX=0.052;exitY=0;exitDx=0;exitDy=0;exitPerimeter=0;edgeStyle=orthogonalEdgeStyle;entryX=0.233;entryY=1;entryDx=0;entryDy=0;entryPerimeter=0;" parent="1" source="ZAZMOjvzsu7jSgVwGaOS-39" target="ZAZMOjvzsu7jSgVwGaOS-28" edge="1">
          <mxGeometry width="50" height="50" relative="1" as="geometry">
            <mxPoint x="1000" y="290" as="sourcePoint" />
            <mxPoint x="1020" y="250" as="targetPoint" />
          </mxGeometry>
        </mxCell>
        <mxCell id="ZAZMOjvzsu7jSgVwGaOS-105" value="" style="endArrow=none;html=1;rounded=0;" parent="1" edge="1">
          <mxGeometry width="50" height="50" relative="1" as="geometry">
            <mxPoint x="1510" y="313" as="sourcePoint" />
            <mxPoint x="1570" y="313" as="targetPoint" />
          </mxGeometry>
        </mxCell>
        <mxCell id="ZAZMOjvzsu7jSgVwGaOS-118" value="" style="endArrow=classic;html=1;rounded=0;edgeStyle=orthogonalEdgeStyle;entryX=0.073;entryY=-0.05;entryDx=0;entryDy=0;entryPerimeter=0;" parent="1" target="X8tlnXn0kMPN9izlXED0-19" edge="1">
          <mxGeometry width="50" height="50" relative="1" as="geometry">
            <mxPoint x="1027" y="160" as="sourcePoint" />
            <mxPoint x="1050" y="330" as="targetPoint" />
            <Array as="points">
              <mxPoint x="1027" y="171" />
              <mxPoint x="950" y="171" />
              <mxPoint x="950" y="301" />
              <mxPoint x="1006" y="301" />
              <mxPoint x="1006" y="350" />
              <mxPoint x="1007" y="350" />
            </Array>
          </mxGeometry>
        </mxCell>
        <mxCell id="ZAZMOjvzsu7jSgVwGaOS-282" value="" style="group;fillColor=none;" parent="1" vertex="1" connectable="0">
          <mxGeometry x="880" y="1100" width="1260" height="40" as="geometry" />
        </mxCell>
        <mxCell id="ZAZMOjvzsu7jSgVwGaOS-283" value="" style="shape=table;startSize=0;container=1;collapsible=0;childLayout=tableLayout;fontSize=16;fillColor=none;" parent="ZAZMOjvzsu7jSgVwGaOS-282" vertex="1">
          <mxGeometry x="60" width="1435" height="40" as="geometry" />
        </mxCell>
        <mxCell id="ZAZMOjvzsu7jSgVwGaOS-284" value="" style="shape=tableRow;horizontal=0;startSize=0;swimlaneHead=0;swimlaneBody=0;top=0;left=0;bottom=0;right=0;collapsible=0;dropTarget=0;fillColor=none;points=[[0,0.5],[1,0.5]];portConstraint=eastwest;fontSize=16;" parent="ZAZMOjvzsu7jSgVwGaOS-283" vertex="1">
          <mxGeometry width="1435" height="40" as="geometry" />
        </mxCell>
        <mxCell id="ZAZMOjvzsu7jSgVwGaOS-285" value="&lt;u&gt;hId&lt;/u&gt;" style="shape=partialRectangle;html=1;whiteSpace=wrap;connectable=0;overflow=hidden;fillColor=none;top=0;left=0;bottom=0;right=0;pointerEvents=1;fontSize=16;" parent="ZAZMOjvzsu7jSgVwGaOS-284" vertex="1">
          <mxGeometry width="111" height="40" as="geometry">
            <mxRectangle width="111" height="40" as="alternateBounds" />
          </mxGeometry>
        </mxCell>
        <mxCell id="ZAZMOjvzsu7jSgVwGaOS-286" value="status" style="shape=partialRectangle;html=1;whiteSpace=wrap;connectable=0;overflow=hidden;fillColor=none;top=0;left=0;bottom=0;right=0;pointerEvents=1;fontSize=16;" parent="ZAZMOjvzsu7jSgVwGaOS-284" vertex="1">
          <mxGeometry x="111" width="110" height="40" as="geometry">
            <mxRectangle width="110" height="40" as="alternateBounds" />
          </mxGeometry>
        </mxCell>
        <mxCell id="ZAZMOjvzsu7jSgVwGaOS-287" value="parking" style="shape=partialRectangle;html=1;whiteSpace=wrap;connectable=0;overflow=hidden;fillColor=none;top=0;left=0;bottom=0;right=0;pointerEvents=1;fontSize=16;" parent="ZAZMOjvzsu7jSgVwGaOS-284" vertex="1">
          <mxGeometry x="221" width="111" height="40" as="geometry">
            <mxRectangle width="111" height="40" as="alternateBounds" />
          </mxGeometry>
        </mxCell>
        <mxCell id="ZAZMOjvzsu7jSgVwGaOS-288" value="direction" style="shape=partialRectangle;html=1;whiteSpace=wrap;connectable=0;overflow=hidden;fillColor=none;top=0;left=0;bottom=0;right=0;pointerEvents=1;fontSize=16;" parent="ZAZMOjvzsu7jSgVwGaOS-284" vertex="1">
          <mxGeometry x="332" width="111" height="40" as="geometry">
            <mxRectangle width="111" height="40" as="alternateBounds" />
          </mxGeometry>
        </mxCell>
        <mxCell id="ZAZMOjvzsu7jSgVwGaOS-289" value="pet" style="shape=partialRectangle;html=1;whiteSpace=wrap;connectable=0;overflow=hidden;fillColor=none;top=0;left=0;bottom=0;right=0;pointerEvents=1;fontSize=16;" parent="ZAZMOjvzsu7jSgVwGaOS-284" vertex="1">
          <mxGeometry x="443" width="110" height="40" as="geometry">
            <mxRectangle width="110" height="40" as="alternateBounds" />
          </mxGeometry>
        </mxCell>
        <mxCell id="ZAZMOjvzsu7jSgVwGaOS-290" value="cook" style="shape=partialRectangle;html=1;whiteSpace=wrap;connectable=0;overflow=hidden;fillColor=none;top=0;left=0;bottom=0;right=0;pointerEvents=1;fontSize=16;" parent="ZAZMOjvzsu7jSgVwGaOS-284" vertex="1">
          <mxGeometry x="553" width="95" height="40" as="geometry">
            <mxRectangle width="95" height="40" as="alternateBounds" />
          </mxGeometry>
        </mxCell>
        <mxCell id="ZAZMOjvzsu7jSgVwGaOS-291" value="age" style="shape=partialRectangle;html=1;whiteSpace=wrap;connectable=0;overflow=hidden;fillColor=none;top=0;left=0;bottom=0;right=0;pointerEvents=1;fontSize=16;" parent="ZAZMOjvzsu7jSgVwGaOS-284" vertex="1">
          <mxGeometry x="648" width="123" height="40" as="geometry">
            <mxRectangle width="123" height="40" as="alternateBounds" />
          </mxGeometry>
        </mxCell>
        <mxCell id="ZAZMOjvzsu7jSgVwGaOS-292" value="period" style="shape=partialRectangle;html=1;whiteSpace=wrap;connectable=0;overflow=hidden;fillColor=none;top=0;left=0;bottom=0;right=0;pointerEvents=1;fontSize=16;" parent="ZAZMOjvzsu7jSgVwGaOS-284" vertex="1">
          <mxGeometry x="771" width="110" height="40" as="geometry">
            <mxRectangle width="110" height="40" as="alternateBounds" />
          </mxGeometry>
        </mxCell>
        <mxCell id="ZAZMOjvzsu7jSgVwGaOS-293" value="security" style="shape=partialRectangle;html=1;whiteSpace=wrap;connectable=0;overflow=hidden;fillColor=none;top=0;left=0;bottom=0;right=0;pointerEvents=1;fontSize=16;" parent="ZAZMOjvzsu7jSgVwGaOS-284" vertex="1">
          <mxGeometry x="881" width="111" height="40" as="geometry">
            <mxRectangle width="111" height="40" as="alternateBounds" />
          </mxGeometry>
        </mxCell>
        <mxCell id="ZAZMOjvzsu7jSgVwGaOS-430" value="management" style="shape=partialRectangle;html=1;whiteSpace=wrap;connectable=0;overflow=hidden;fillColor=none;top=0;left=0;bottom=0;right=0;pointerEvents=1;fontSize=16;" parent="ZAZMOjvzsu7jSgVwGaOS-284" vertex="1">
          <mxGeometry x="992" width="110" height="40" as="geometry">
            <mxRectangle width="110" height="40" as="alternateBounds" />
          </mxGeometry>
        </mxCell>
        <mxCell id="ZAZMOjvzsu7jSgVwGaOS-431" value="bus" style="shape=partialRectangle;html=1;whiteSpace=wrap;connectable=0;overflow=hidden;fillColor=none;top=0;left=0;bottom=0;right=0;pointerEvents=1;fontSize=16;" parent="ZAZMOjvzsu7jSgVwGaOS-284" vertex="1">
          <mxGeometry x="1102" width="111" height="40" as="geometry">
            <mxRectangle width="111" height="40" as="alternateBounds" />
          </mxGeometry>
        </mxCell>
        <mxCell id="NdvFwqAAcWhJ9WmDEM3E-58" value="train" style="shape=partialRectangle;html=1;whiteSpace=wrap;connectable=0;overflow=hidden;fillColor=none;top=0;left=0;bottom=0;right=0;pointerEvents=1;fontSize=16;" parent="ZAZMOjvzsu7jSgVwGaOS-284" vertex="1">
          <mxGeometry x="1213" width="111" height="40" as="geometry">
            <mxRectangle width="111" height="40" as="alternateBounds" />
          </mxGeometry>
        </mxCell>
        <mxCell id="NdvFwqAAcWhJ9WmDEM3E-59" value="mrt" style="shape=partialRectangle;html=1;whiteSpace=wrap;connectable=0;overflow=hidden;fillColor=none;top=0;left=0;bottom=0;right=0;pointerEvents=1;fontSize=16;" parent="ZAZMOjvzsu7jSgVwGaOS-284" vertex="1">
          <mxGeometry x="1324" width="111" height="40" as="geometry">
            <mxRectangle width="111" height="40" as="alternateBounds" />
          </mxGeometry>
        </mxCell>
        <mxCell id="ZAZMOjvzsu7jSgVwGaOS-294" value="&lt;b&gt;&lt;font style=&quot;font-size: 14px;&quot;&gt;R_detail&lt;/font&gt;&lt;/b&gt;" style="text;html=1;align=center;verticalAlign=middle;whiteSpace=wrap;rounded=0;fillColor=none;" parent="ZAZMOjvzsu7jSgVwGaOS-282" vertex="1">
          <mxGeometry x="-20" width="80" height="40" as="geometry" />
        </mxCell>
        <mxCell id="ZAZMOjvzsu7jSgVwGaOS-71" value="" style="shape=table;startSize=0;container=1;collapsible=0;childLayout=tableLayout;fontSize=16;" parent="1" vertex="1">
          <mxGeometry x="1260" y="440" width="774" height="40" as="geometry" />
        </mxCell>
        <mxCell id="ZAZMOjvzsu7jSgVwGaOS-72" value="" style="shape=tableRow;horizontal=0;startSize=0;swimlaneHead=0;swimlaneBody=0;strokeColor=inherit;top=0;left=0;bottom=0;right=0;collapsible=0;dropTarget=0;fillColor=none;points=[[0,0.5],[1,0.5]];portConstraint=eastwest;fontSize=16;" parent="ZAZMOjvzsu7jSgVwGaOS-71" vertex="1">
          <mxGeometry width="774" height="40" as="geometry" />
        </mxCell>
        <mxCell id="ZAZMOjvzsu7jSgVwGaOS-73" value="&lt;u&gt;mId&lt;/u&gt;" style="shape=partialRectangle;html=1;whiteSpace=wrap;connectable=0;strokeColor=inherit;overflow=hidden;fillColor=none;top=0;left=0;bottom=0;right=0;pointerEvents=1;fontSize=16;" parent="ZAZMOjvzsu7jSgVwGaOS-72" vertex="1">
          <mxGeometry width="129" height="40" as="geometry">
            <mxRectangle width="129" height="40" as="alternateBounds" />
          </mxGeometry>
        </mxCell>
        <mxCell id="ZAZMOjvzsu7jSgVwGaOS-74" value="tId" style="shape=partialRectangle;html=1;whiteSpace=wrap;connectable=0;strokeColor=inherit;overflow=hidden;fillColor=none;top=0;left=0;bottom=0;right=0;pointerEvents=1;fontSize=16;" parent="ZAZMOjvzsu7jSgVwGaOS-72" vertex="1">
          <mxGeometry x="129" width="129" height="40" as="geometry">
            <mxRectangle width="129" height="40" as="alternateBounds" />
          </mxGeometry>
        </mxCell>
        <mxCell id="ZAZMOjvzsu7jSgVwGaOS-75" value="status" style="shape=partialRectangle;html=1;whiteSpace=wrap;connectable=0;strokeColor=inherit;overflow=hidden;fillColor=none;top=0;left=0;bottom=0;right=0;pointerEvents=1;fontSize=16;" parent="ZAZMOjvzsu7jSgVwGaOS-72" vertex="1">
          <mxGeometry x="258" width="129" height="40" as="geometry">
            <mxRectangle width="129" height="40" as="alternateBounds" />
          </mxGeometry>
        </mxCell>
        <mxCell id="ZAZMOjvzsu7jSgVwGaOS-76" value="time" style="shape=partialRectangle;html=1;whiteSpace=wrap;connectable=0;strokeColor=inherit;overflow=hidden;fillColor=none;top=0;left=0;bottom=0;right=0;pointerEvents=1;fontSize=16;" parent="ZAZMOjvzsu7jSgVwGaOS-72" vertex="1">
          <mxGeometry x="387" width="129" height="40" as="geometry">
            <mxRectangle width="129" height="40" as="alternateBounds" />
          </mxGeometry>
        </mxCell>
        <mxCell id="ZAZMOjvzsu7jSgVwGaOS-77" value="finalprice" style="shape=partialRectangle;html=1;whiteSpace=wrap;connectable=0;strokeColor=inherit;overflow=hidden;fillColor=none;top=0;left=0;bottom=0;right=0;pointerEvents=1;fontSize=16;" parent="ZAZMOjvzsu7jSgVwGaOS-72" vertex="1">
          <mxGeometry x="516" width="129" height="40" as="geometry">
            <mxRectangle width="129" height="40" as="alternateBounds" />
          </mxGeometry>
        </mxCell>
        <mxCell id="ZAZMOjvzsu7jSgVwGaOS-424" value="house_id" style="shape=partialRectangle;html=1;whiteSpace=wrap;connectable=0;strokeColor=inherit;overflow=hidden;fillColor=none;top=0;left=0;bottom=0;right=0;pointerEvents=1;fontSize=16;" parent="ZAZMOjvzsu7jSgVwGaOS-72" vertex="1">
          <mxGeometry x="645" width="129" height="40" as="geometry">
            <mxRectangle width="129" height="40" as="alternateBounds" />
          </mxGeometry>
        </mxCell>
        <mxCell id="ZAZMOjvzsu7jSgVwGaOS-100" value="&lt;font style=&quot;font-size: 15px;&quot;&gt;Transaction&lt;/font&gt;" style="text;html=1;align=center;verticalAlign=middle;whiteSpace=wrap;rounded=0;fontStyle=1" parent="1" vertex="1">
          <mxGeometry x="1160" y="440" width="80" height="40" as="geometry" />
        </mxCell>
        <mxCell id="ZAZMOjvzsu7jSgVwGaOS-129" value="" style="group" parent="1" vertex="1" connectable="0">
          <mxGeometry x="850" y="360" width="874" height="40" as="geometry" />
        </mxCell>
        <mxCell id="ZAZMOjvzsu7jSgVwGaOS-126" value="" style="group" parent="ZAZMOjvzsu7jSgVwGaOS-129" vertex="1" connectable="0">
          <mxGeometry width="874" height="40" as="geometry" />
        </mxCell>
        <mxCell id="ZAZMOjvzsu7jSgVwGaOS-93" value="&lt;b&gt;&lt;font style=&quot;font-size: 15px;&quot;&gt;Member&lt;/font&gt;&lt;/b&gt;" style="text;html=1;align=center;verticalAlign=middle;whiteSpace=wrap;rounded=0;" parent="ZAZMOjvzsu7jSgVwGaOS-126" vertex="1">
          <mxGeometry width="80" height="40" as="geometry" />
        </mxCell>
        <mxCell id="X8tlnXn0kMPN9izlXED0-18" value="" style="shape=table;startSize=0;container=1;collapsible=0;childLayout=tableLayout;fontSize=16;" parent="ZAZMOjvzsu7jSgVwGaOS-129" vertex="1">
          <mxGeometry x="100" width="774" height="40" as="geometry" />
        </mxCell>
        <mxCell id="X8tlnXn0kMPN9izlXED0-19" value="" style="shape=tableRow;horizontal=0;startSize=0;swimlaneHead=0;swimlaneBody=0;strokeColor=inherit;top=0;left=0;bottom=0;right=0;collapsible=0;dropTarget=0;fillColor=none;points=[[0,0.5],[1,0.5]];portConstraint=eastwest;fontSize=16;" parent="X8tlnXn0kMPN9izlXED0-18" vertex="1">
          <mxGeometry width="774" height="40" as="geometry" />
        </mxCell>
        <mxCell id="ZAZMOjvzsu7jSgVwGaOS-10" value="&lt;u&gt;mId&lt;/u&gt;" style="shape=partialRectangle;html=1;whiteSpace=wrap;connectable=0;strokeColor=inherit;overflow=hidden;fillColor=none;top=0;left=0;bottom=0;right=0;pointerEvents=1;fontSize=16;" parent="X8tlnXn0kMPN9izlXED0-19" vertex="1">
          <mxGeometry width="129" height="40" as="geometry">
            <mxRectangle width="129" height="40" as="alternateBounds" />
          </mxGeometry>
        </mxCell>
        <mxCell id="ZAZMOjvzsu7jSgVwGaOS-9" value="account" style="shape=partialRectangle;html=1;whiteSpace=wrap;connectable=0;strokeColor=inherit;overflow=hidden;fillColor=none;top=0;left=0;bottom=0;right=0;pointerEvents=1;fontSize=16;" parent="X8tlnXn0kMPN9izlXED0-19" vertex="1">
          <mxGeometry x="129" width="129" height="40" as="geometry">
            <mxRectangle width="129" height="40" as="alternateBounds" />
          </mxGeometry>
        </mxCell>
        <mxCell id="ZAZMOjvzsu7jSgVwGaOS-8" value="pwd&lt;span style=&quot;white-space: pre;&quot;&gt;&#x9;&lt;/span&gt;" style="shape=partialRectangle;html=1;whiteSpace=wrap;connectable=0;strokeColor=inherit;overflow=hidden;fillColor=none;top=0;left=0;bottom=0;right=0;pointerEvents=1;fontSize=16;" parent="X8tlnXn0kMPN9izlXED0-19" vertex="1">
          <mxGeometry x="258" width="129" height="40" as="geometry">
            <mxRectangle width="129" height="40" as="alternateBounds" />
          </mxGeometry>
        </mxCell>
        <mxCell id="ZAZMOjvzsu7jSgVwGaOS-7" value="name" style="shape=partialRectangle;html=1;whiteSpace=wrap;connectable=0;strokeColor=inherit;overflow=hidden;fillColor=none;top=0;left=0;bottom=0;right=0;pointerEvents=1;fontSize=16;" parent="X8tlnXn0kMPN9izlXED0-19" vertex="1">
          <mxGeometry x="387" width="129" height="40" as="geometry">
            <mxRectangle width="129" height="40" as="alternateBounds" />
          </mxGeometry>
        </mxCell>
        <mxCell id="ZAZMOjvzsu7jSgVwGaOS-6" value="gender" style="shape=partialRectangle;html=1;whiteSpace=wrap;connectable=0;strokeColor=inherit;overflow=hidden;fillColor=none;top=0;left=0;bottom=0;right=0;pointerEvents=1;fontSize=16;" parent="X8tlnXn0kMPN9izlXED0-19" vertex="1">
          <mxGeometry x="516" width="129" height="40" as="geometry">
            <mxRectangle width="129" height="40" as="alternateBounds" />
          </mxGeometry>
        </mxCell>
        <mxCell id="ZAZMOjvzsu7jSgVwGaOS-5" value="email" style="shape=partialRectangle;html=1;whiteSpace=wrap;connectable=0;strokeColor=inherit;overflow=hidden;fillColor=none;top=0;left=0;bottom=0;right=0;pointerEvents=1;fontSize=16;" parent="X8tlnXn0kMPN9izlXED0-19" vertex="1">
          <mxGeometry x="645" width="129" height="40" as="geometry">
            <mxRectangle width="129" height="40" as="alternateBounds" />
          </mxGeometry>
        </mxCell>
        <mxCell id="ZAZMOjvzsu7jSgVwGaOS-136" value="" style="endArrow=classic;html=1;rounded=0;exitX=0.045;exitY=0.027;exitDx=0;exitDy=0;exitPerimeter=0;entryX=0.082;entryY=1.004;entryDx=0;entryDy=0;entryPerimeter=0;edgeStyle=orthogonalEdgeStyle;" parent="1" source="ZAZMOjvzsu7jSgVwGaOS-72" target="X8tlnXn0kMPN9izlXED0-19" edge="1">
          <mxGeometry width="50" height="50" relative="1" as="geometry">
            <mxPoint x="1000" y="370" as="sourcePoint" />
            <mxPoint x="1014" y="410" as="targetPoint" />
            <Array as="points">
              <mxPoint x="1296" y="441" />
              <mxPoint x="1296" y="420" />
              <mxPoint x="1013" y="420" />
            </Array>
          </mxGeometry>
        </mxCell>
        <mxCell id="ZAZMOjvzsu7jSgVwGaOS-399" value="" style="group" parent="1" vertex="1" connectable="0">
          <mxGeometry x="1171" y="510" width="358" height="40" as="geometry" />
        </mxCell>
        <mxCell id="ZAZMOjvzsu7jSgVwGaOS-400" value="" style="shape=table;startSize=0;container=1;collapsible=0;childLayout=tableLayout;fontSize=16;" parent="ZAZMOjvzsu7jSgVwGaOS-399" vertex="1">
          <mxGeometry x="100" width="387" height="40" as="geometry" />
        </mxCell>
        <mxCell id="ZAZMOjvzsu7jSgVwGaOS-401" value="" style="shape=tableRow;horizontal=0;startSize=0;swimlaneHead=0;swimlaneBody=0;strokeColor=inherit;top=0;left=0;bottom=0;right=0;collapsible=0;dropTarget=0;fillColor=none;points=[[0,0.5],[1,0.5]];portConstraint=eastwest;fontSize=16;" parent="ZAZMOjvzsu7jSgVwGaOS-400" vertex="1">
          <mxGeometry width="387" height="40" as="geometry" />
        </mxCell>
        <mxCell id="ZAZMOjvzsu7jSgVwGaOS-402" value="&lt;u&gt;seq&lt;/u&gt;" style="shape=partialRectangle;html=1;whiteSpace=wrap;connectable=0;strokeColor=inherit;overflow=hidden;fillColor=none;top=0;left=0;bottom=0;right=0;pointerEvents=1;fontSize=16;" parent="ZAZMOjvzsu7jSgVwGaOS-401" vertex="1">
          <mxGeometry width="129" height="40" as="geometry">
            <mxRectangle width="129" height="40" as="alternateBounds" />
          </mxGeometry>
        </mxCell>
        <mxCell id="ZAZMOjvzsu7jSgVwGaOS-403" value="&lt;u&gt;mId&lt;/u&gt;" style="shape=partialRectangle;html=1;whiteSpace=wrap;connectable=0;strokeColor=inherit;overflow=hidden;fillColor=none;top=0;left=0;bottom=0;right=0;pointerEvents=1;fontSize=16;" parent="ZAZMOjvzsu7jSgVwGaOS-401" vertex="1">
          <mxGeometry x="129" width="129" height="40" as="geometry">
            <mxRectangle width="129" height="40" as="alternateBounds" />
          </mxGeometry>
        </mxCell>
        <mxCell id="ZAZMOjvzsu7jSgVwGaOS-409" value="hId" style="shape=partialRectangle;html=1;whiteSpace=wrap;connectable=0;strokeColor=inherit;overflow=hidden;fillColor=none;top=0;left=0;bottom=0;right=0;pointerEvents=1;fontSize=16;" parent="ZAZMOjvzsu7jSgVwGaOS-401" vertex="1">
          <mxGeometry x="258" width="129" height="40" as="geometry">
            <mxRectangle width="129" height="40" as="alternateBounds" />
          </mxGeometry>
        </mxCell>
        <mxCell id="ZAZMOjvzsu7jSgVwGaOS-404" value="&lt;font style=&quot;font-size: 18px;&quot;&gt;Favorite&lt;/font&gt;" style="text;html=1;align=center;verticalAlign=middle;whiteSpace=wrap;rounded=0;fontStyle=1" parent="ZAZMOjvzsu7jSgVwGaOS-399" vertex="1">
          <mxGeometry width="80" height="40" as="geometry" />
        </mxCell>
        <mxCell id="ZAZMOjvzsu7jSgVwGaOS-407" value="" style="endArrow=classic;html=1;rounded=0;edgeStyle=orthogonalEdgeStyle;entryX=0.065;entryY=1;entryDx=0;entryDy=0;entryPerimeter=0;exitX=0.002;exitY=0.159;exitDx=0;exitDy=0;exitPerimeter=0;" parent="1" source="ZAZMOjvzsu7jSgVwGaOS-401" target="X8tlnXn0kMPN9izlXED0-19" edge="1">
          <mxGeometry width="50" height="50" relative="1" as="geometry">
            <mxPoint x="1090" y="500" as="sourcePoint" />
            <mxPoint x="1002" y="410" as="targetPoint" />
          </mxGeometry>
        </mxCell>
        <mxCell id="ZAZMOjvzsu7jSgVwGaOS-410" value="" style="endArrow=classic;html=1;rounded=0;edgeStyle=orthogonalEdgeStyle;entryX=0.086;entryY=0;entryDx=0;entryDy=0;entryPerimeter=0;exitX=0.84;exitY=1.066;exitDx=0;exitDy=0;exitPerimeter=0;" parent="1" source="ZAZMOjvzsu7jSgVwGaOS-401" target="ZAZMOjvzsu7jSgVwGaOS-83" edge="1">
          <mxGeometry width="50" height="50" relative="1" as="geometry">
            <mxPoint x="1367" y="581" as="sourcePoint" />
            <mxPoint x="1095" y="465" as="targetPoint" />
            <Array as="points">
              <mxPoint x="1596" y="660" />
              <mxPoint x="1017" y="660" />
              <mxPoint x="1017" y="680" />
            </Array>
          </mxGeometry>
        </mxCell>
        <mxCell id="ZAZMOjvzsu7jSgVwGaOS-416" value="" style="group" parent="1" vertex="1" connectable="0">
          <mxGeometry x="850" y="560" width="358" height="40" as="geometry" />
        </mxCell>
        <mxCell id="ZAZMOjvzsu7jSgVwGaOS-411" value="" style="shape=table;startSize=0;container=1;collapsible=0;childLayout=tableLayout;fontSize=16;fontStyle=4" parent="ZAZMOjvzsu7jSgVwGaOS-416" vertex="1">
          <mxGeometry x="100" width="387" height="40" as="geometry" />
        </mxCell>
        <mxCell id="ZAZMOjvzsu7jSgVwGaOS-412" value="" style="shape=tableRow;horizontal=0;startSize=0;swimlaneHead=0;swimlaneBody=0;strokeColor=inherit;top=0;left=0;bottom=0;right=0;collapsible=0;dropTarget=0;fillColor=none;points=[[0,0.5],[1,0.5]];portConstraint=eastwest;fontSize=16;" parent="ZAZMOjvzsu7jSgVwGaOS-411" vertex="1">
          <mxGeometry width="387" height="40" as="geometry" />
        </mxCell>
        <mxCell id="ZAZMOjvzsu7jSgVwGaOS-413" value="&lt;u&gt;mId&lt;/u&gt;" style="shape=partialRectangle;html=1;whiteSpace=wrap;connectable=0;strokeColor=inherit;overflow=hidden;fillColor=none;top=0;left=0;bottom=0;right=0;pointerEvents=1;fontSize=16;" parent="ZAZMOjvzsu7jSgVwGaOS-412" vertex="1">
          <mxGeometry width="129" height="40" as="geometry">
            <mxRectangle width="129" height="40" as="alternateBounds" />
          </mxGeometry>
        </mxCell>
        <mxCell id="ZAZMOjvzsu7jSgVwGaOS-414" value="&lt;u&gt;hId&lt;/u&gt;" style="shape=partialRectangle;html=1;whiteSpace=wrap;connectable=0;strokeColor=inherit;overflow=hidden;fillColor=none;top=0;left=0;bottom=0;right=0;pointerEvents=1;fontSize=16;" parent="ZAZMOjvzsu7jSgVwGaOS-412" vertex="1">
          <mxGeometry x="129" width="129" height="40" as="geometry">
            <mxRectangle width="129" height="40" as="alternateBounds" />
          </mxGeometry>
        </mxCell>
        <mxCell id="ZAZMOjvzsu7jSgVwGaOS-420" value="browse_data" style="shape=partialRectangle;html=1;whiteSpace=wrap;connectable=0;strokeColor=inherit;overflow=hidden;fillColor=none;top=0;left=0;bottom=0;right=0;pointerEvents=1;fontSize=16;" parent="ZAZMOjvzsu7jSgVwGaOS-412" vertex="1">
          <mxGeometry x="258" width="129" height="40" as="geometry">
            <mxRectangle width="129" height="40" as="alternateBounds" />
          </mxGeometry>
        </mxCell>
        <mxCell id="ZAZMOjvzsu7jSgVwGaOS-415" value="&lt;b style=&quot;font-size: 14px;&quot;&gt;Browse&lt;/b&gt;" style="text;html=1;align=center;verticalAlign=middle;whiteSpace=wrap;rounded=0;fontSize=14;" parent="ZAZMOjvzsu7jSgVwGaOS-416" vertex="1">
          <mxGeometry width="80" height="40" as="geometry" />
        </mxCell>
        <mxCell id="ZAZMOjvzsu7jSgVwGaOS-417" value="" style="endArrow=classic;html=1;rounded=0;edgeStyle=orthogonalEdgeStyle;entryX=0.06;entryY=-0.075;entryDx=0;entryDy=0;entryPerimeter=0;exitX=0.519;exitY=0.975;exitDx=0;exitDy=0;exitPerimeter=0;" parent="1" source="ZAZMOjvzsu7jSgVwGaOS-412" target="ZAZMOjvzsu7jSgVwGaOS-83" edge="1">
          <mxGeometry width="50" height="50" relative="1" as="geometry">
            <mxPoint x="1443" y="540" as="sourcePoint" />
            <mxPoint x="897" y="687" as="targetPoint" />
            <Array as="points">
              <mxPoint x="1151" y="647" />
              <mxPoint x="990" y="647" />
              <mxPoint x="990" y="670" />
              <mxPoint x="989" y="670" />
            </Array>
          </mxGeometry>
        </mxCell>
        <mxCell id="ZAZMOjvzsu7jSgVwGaOS-419" value="" style="endArrow=classic;html=1;rounded=0;entryX=0.047;entryY=1.014;entryDx=0;entryDy=0;entryPerimeter=0;exitX=0.095;exitY=-0.05;exitDx=0;exitDy=0;exitPerimeter=0;" parent="1" source="ZAZMOjvzsu7jSgVwGaOS-412" target="X8tlnXn0kMPN9izlXED0-19" edge="1">
          <mxGeometry width="50" height="50" relative="1" as="geometry">
            <mxPoint x="910" y="520" as="sourcePoint" />
            <mxPoint x="960" y="470" as="targetPoint" />
          </mxGeometry>
        </mxCell>
        <mxCell id="ZAZMOjvzsu7jSgVwGaOS-426" value="" style="endArrow=classic;html=1;rounded=0;exitX=0.906;exitY=1.089;exitDx=0;exitDy=0;exitPerimeter=0;entryX=0.114;entryY=-0.035;entryDx=0;entryDy=0;entryPerimeter=0;edgeStyle=orthogonalEdgeStyle;" parent="1" source="ZAZMOjvzsu7jSgVwGaOS-72" target="ZAZMOjvzsu7jSgVwGaOS-83" edge="1">
          <mxGeometry width="50" height="50" relative="1" as="geometry">
            <mxPoint x="1730" y="635" as="sourcePoint" />
            <mxPoint x="1647" y="660" as="targetPoint" />
            <Array as="points">
              <mxPoint x="1960" y="484" />
              <mxPoint x="1960" y="520" />
              <mxPoint x="1710" y="520" />
              <mxPoint x="1710" y="680" />
              <mxPoint x="1024" y="680" />
            </Array>
          </mxGeometry>
        </mxCell>
        <mxCell id="ZAZMOjvzsu7jSgVwGaOS-164" value="" style="shape=table;startSize=0;container=1;collapsible=0;childLayout=tableLayout;fontSize=16;fillColor=none;" parent="1" vertex="1">
          <mxGeometry x="1210" y="870" width="1119" height="40" as="geometry" />
        </mxCell>
        <mxCell id="ZAZMOjvzsu7jSgVwGaOS-165" value="" style="shape=tableRow;horizontal=0;startSize=0;swimlaneHead=0;swimlaneBody=0;top=0;left=0;bottom=0;right=0;collapsible=0;dropTarget=0;fillColor=none;points=[[0,0.5],[1,0.5]];portConstraint=eastwest;fontSize=16;" parent="ZAZMOjvzsu7jSgVwGaOS-164" vertex="1">
          <mxGeometry width="1119" height="40" as="geometry" />
        </mxCell>
        <mxCell id="ZAZMOjvzsu7jSgVwGaOS-166" value="&lt;u&gt;hId&lt;/u&gt;" style="shape=partialRectangle;html=1;whiteSpace=wrap;connectable=0;overflow=hidden;top=0;left=0;bottom=0;right=0;pointerEvents=1;fontSize=16;fillColor=none;" parent="ZAZMOjvzsu7jSgVwGaOS-165" vertex="1">
          <mxGeometry width="94" height="40" as="geometry">
            <mxRectangle width="94" height="40" as="alternateBounds" />
          </mxGeometry>
        </mxCell>
        <mxCell id="ZAZMOjvzsu7jSgVwGaOS-167" value="address" style="shape=partialRectangle;html=1;whiteSpace=wrap;connectable=0;overflow=hidden;top=0;left=0;bottom=0;right=0;pointerEvents=1;fontSize=16;fillColor=none;" parent="ZAZMOjvzsu7jSgVwGaOS-165" vertex="1">
          <mxGeometry x="94" width="94" height="40" as="geometry">
            <mxRectangle width="94" height="40" as="alternateBounds" />
          </mxGeometry>
        </mxCell>
        <mxCell id="ZAZMOjvzsu7jSgVwGaOS-168" value="size" style="shape=partialRectangle;html=1;whiteSpace=wrap;connectable=0;overflow=hidden;top=0;left=0;bottom=0;right=0;pointerEvents=1;fontSize=16;fillColor=none;" parent="ZAZMOjvzsu7jSgVwGaOS-165" vertex="1">
          <mxGeometry x="188" width="93" height="40" as="geometry">
            <mxRectangle width="93" height="40" as="alternateBounds" />
          </mxGeometry>
        </mxCell>
        <mxCell id="ZAZMOjvzsu7jSgVwGaOS-169" value="level" style="shape=partialRectangle;html=1;whiteSpace=wrap;connectable=0;overflow=hidden;top=0;left=0;bottom=0;right=0;pointerEvents=1;fontSize=16;fillColor=none;" parent="ZAZMOjvzsu7jSgVwGaOS-165" vertex="1">
          <mxGeometry x="281" width="95" height="40" as="geometry">
            <mxRectangle width="95" height="40" as="alternateBounds" />
          </mxGeometry>
        </mxCell>
        <mxCell id="ZAZMOjvzsu7jSgVwGaOS-170" value="price" style="shape=partialRectangle;html=1;whiteSpace=wrap;connectable=0;overflow=hidden;top=0;left=0;bottom=0;right=0;pointerEvents=1;fontSize=16;fillColor=none;" parent="ZAZMOjvzsu7jSgVwGaOS-165" vertex="1">
          <mxGeometry x="376" width="93" height="40" as="geometry">
            <mxRectangle width="93" height="40" as="alternateBounds" />
          </mxGeometry>
        </mxCell>
        <mxCell id="ZAZMOjvzsu7jSgVwGaOS-171" value="type" style="shape=partialRectangle;html=1;whiteSpace=wrap;connectable=0;overflow=hidden;top=0;left=0;bottom=0;right=0;pointerEvents=1;fontSize=16;fillColor=none;" parent="ZAZMOjvzsu7jSgVwGaOS-165" vertex="1">
          <mxGeometry x="469" width="91" height="40" as="geometry">
            <mxRectangle width="91" height="40" as="alternateBounds" />
          </mxGeometry>
        </mxCell>
        <mxCell id="ZAZMOjvzsu7jSgVwGaOS-172" value="room&lt;span style=&quot;white-space: pre;&quot;&gt;&#x9;&lt;/span&gt;" style="shape=partialRectangle;html=1;whiteSpace=wrap;connectable=0;overflow=hidden;top=0;left=0;bottom=0;right=0;pointerEvents=1;fontSize=16;fillColor=none;" parent="ZAZMOjvzsu7jSgVwGaOS-165" vertex="1">
          <mxGeometry x="560" width="91" height="40" as="geometry">
            <mxRectangle width="91" height="40" as="alternateBounds" />
          </mxGeometry>
        </mxCell>
        <mxCell id="ZAZMOjvzsu7jSgVwGaOS-173" value="living" style="shape=partialRectangle;html=1;whiteSpace=wrap;connectable=0;overflow=hidden;top=0;left=0;bottom=0;right=0;pointerEvents=1;fontSize=16;fillColor=none;" parent="ZAZMOjvzsu7jSgVwGaOS-165" vertex="1">
          <mxGeometry x="651" width="93" height="40" as="geometry">
            <mxRectangle width="93" height="40" as="alternateBounds" />
          </mxGeometry>
        </mxCell>
        <mxCell id="ZAZMOjvzsu7jSgVwGaOS-174" value="bath" style="shape=partialRectangle;html=1;whiteSpace=wrap;connectable=0;overflow=hidden;top=0;left=0;bottom=0;right=0;pointerEvents=1;fontSize=16;fillColor=none;" parent="ZAZMOjvzsu7jSgVwGaOS-165" vertex="1">
          <mxGeometry x="744" width="94" height="40" as="geometry">
            <mxRectangle width="94" height="40" as="alternateBounds" />
          </mxGeometry>
        </mxCell>
        <mxCell id="ZAZMOjvzsu7jSgVwGaOS-427" value="room" style="shape=partialRectangle;html=1;whiteSpace=wrap;connectable=0;overflow=hidden;top=0;left=0;bottom=0;right=0;pointerEvents=1;fontSize=16;fillColor=none;" parent="ZAZMOjvzsu7jSgVwGaOS-165" vertex="1">
          <mxGeometry x="838" width="93" height="40" as="geometry">
            <mxRectangle width="93" height="40" as="alternateBounds" />
          </mxGeometry>
        </mxCell>
        <mxCell id="ZAZMOjvzsu7jSgVwGaOS-428" value="bath" style="shape=partialRectangle;html=1;whiteSpace=wrap;connectable=0;overflow=hidden;top=0;left=0;bottom=0;right=0;pointerEvents=1;fontSize=16;fillColor=none;" parent="ZAZMOjvzsu7jSgVwGaOS-165" vertex="1">
          <mxGeometry x="931" width="95" height="40" as="geometry">
            <mxRectangle width="95" height="40" as="alternateBounds" />
          </mxGeometry>
        </mxCell>
        <mxCell id="ZAZMOjvzsu7jSgVwGaOS-429" value="living" style="shape=partialRectangle;html=1;whiteSpace=wrap;connectable=0;overflow=hidden;top=0;left=0;bottom=0;right=0;pointerEvents=1;fontSize=16;fillColor=none;" parent="ZAZMOjvzsu7jSgVwGaOS-165" vertex="1">
          <mxGeometry x="1026" width="93" height="40" as="geometry">
            <mxRectangle width="93" height="40" as="alternateBounds" />
          </mxGeometry>
        </mxCell>
        <mxCell id="ZAZMOjvzsu7jSgVwGaOS-175" value="&lt;b&gt;&lt;font style=&quot;font-size: 14px;&quot;&gt;Info&lt;/font&gt;&lt;/b&gt;" style="text;html=1;align=center;verticalAlign=middle;whiteSpace=wrap;rounded=0;fillColor=none;" parent="1" vertex="1">
          <mxGeometry x="1100" y="870" width="80" height="40" as="geometry" />
        </mxCell>
        <mxCell id="ZAZMOjvzsu7jSgVwGaOS-457" value="" style="endArrow=classic;html=1;rounded=0;entryX=0.086;entryY=-0.1;entryDx=0;entryDy=0;entryPerimeter=0;exitX=0.183;exitY=1.067;exitDx=0;exitDy=0;exitPerimeter=0;" parent="1" source="ZAZMOjvzsu7jSgVwGaOS-28" target="X8tlnXn0kMPN9izlXED0-19" edge="1">
          <mxGeometry width="50" height="50" relative="1" as="geometry">
            <mxPoint x="1029.5" y="427" as="sourcePoint" />
            <mxPoint x="1028.5" y="270" as="targetPoint" />
          </mxGeometry>
        </mxCell>
        <mxCell id="NdvFwqAAcWhJ9WmDEM3E-36" value="" style="group" parent="1" vertex="1" connectable="0">
          <mxGeometry x="760" y="780" width="1260" height="40" as="geometry" />
        </mxCell>
        <mxCell id="NdvFwqAAcWhJ9WmDEM3E-37" value="" style="shape=table;startSize=0;container=1;collapsible=0;childLayout=tableLayout;fontSize=16;fillColor=none;" parent="NdvFwqAAcWhJ9WmDEM3E-36" vertex="1">
          <mxGeometry x="440" y="20" width="260" height="40" as="geometry" />
        </mxCell>
        <mxCell id="NdvFwqAAcWhJ9WmDEM3E-38" value="" style="shape=tableRow;horizontal=0;startSize=0;swimlaneHead=0;swimlaneBody=0;top=0;left=0;bottom=0;right=0;collapsible=0;dropTarget=0;points=[[0,0.5],[1,0.5]];portConstraint=eastwest;fontSize=16;fillColor=none;" parent="NdvFwqAAcWhJ9WmDEM3E-37" vertex="1">
          <mxGeometry width="260" height="40" as="geometry" />
        </mxCell>
        <mxCell id="NdvFwqAAcWhJ9WmDEM3E-39" value="&lt;u&gt;path&lt;/u&gt;" style="shape=partialRectangle;html=1;whiteSpace=wrap;connectable=0;overflow=hidden;top=0;left=0;bottom=0;right=0;pointerEvents=1;fontSize=16;fillColor=none;" parent="NdvFwqAAcWhJ9WmDEM3E-38" vertex="1">
          <mxGeometry width="129" height="40" as="geometry">
            <mxRectangle width="129" height="40" as="alternateBounds" />
          </mxGeometry>
        </mxCell>
        <mxCell id="NdvFwqAAcWhJ9WmDEM3E-40" value="hId" style="shape=partialRectangle;html=1;whiteSpace=wrap;connectable=0;overflow=hidden;top=0;left=0;bottom=0;right=0;pointerEvents=1;fontSize=16;fillColor=none;" parent="NdvFwqAAcWhJ9WmDEM3E-38" vertex="1">
          <mxGeometry x="129" width="131" height="40" as="geometry">
            <mxRectangle width="131" height="40" as="alternateBounds" />
          </mxGeometry>
        </mxCell>
        <mxCell id="NdvFwqAAcWhJ9WmDEM3E-43" value="&lt;b style=&quot;font-size: 14px;&quot;&gt;Image&lt;/b&gt;" style="text;html=1;align=center;verticalAlign=middle;whiteSpace=wrap;rounded=0;fontSize=14;fillColor=none;" parent="NdvFwqAAcWhJ9WmDEM3E-36" vertex="1">
          <mxGeometry x="340" y="20" width="80" height="40" as="geometry" />
        </mxCell>
        <mxCell id="NdvFwqAAcWhJ9WmDEM3E-45" value="" style="endArrow=classic;html=1;rounded=0;edgeStyle=orthogonalEdgeStyle;fillColor=none;entryX=0.219;entryY=1.085;entryDx=0;entryDy=0;entryPerimeter=0;" parent="1" target="ZAZMOjvzsu7jSgVwGaOS-83" edge="1">
          <mxGeometry width="50" height="50" relative="1" as="geometry">
            <mxPoint x="1400" y="800" as="sourcePoint" />
            <mxPoint x="1120" y="740" as="targetPoint" />
            <Array as="points">
              <mxPoint x="1400" y="770" />
              <mxPoint x="1119" y="770" />
            </Array>
          </mxGeometry>
        </mxCell>
        <mxCell id="NdvFwqAAcWhJ9WmDEM3E-60" value="" style="group;fillColor=none;" parent="1" vertex="1" connectable="0">
          <mxGeometry x="1066.5" y="940" width="1260" height="40" as="geometry" />
        </mxCell>
        <mxCell id="NdvFwqAAcWhJ9WmDEM3E-61" value="" style="shape=table;startSize=0;container=1;collapsible=0;childLayout=tableLayout;fontSize=16;fillColor=none;" parent="NdvFwqAAcWhJ9WmDEM3E-60" vertex="1">
          <mxGeometry x="140" width="1102" height="40" as="geometry" />
        </mxCell>
        <mxCell id="NdvFwqAAcWhJ9WmDEM3E-62" value="" style="shape=tableRow;horizontal=0;startSize=0;swimlaneHead=0;swimlaneBody=0;top=0;left=0;bottom=0;right=0;collapsible=0;dropTarget=0;fillColor=none;points=[[0,0.5],[1,0.5]];portConstraint=eastwest;fontSize=16;" parent="NdvFwqAAcWhJ9WmDEM3E-61" vertex="1">
          <mxGeometry width="1102" height="40" as="geometry" />
        </mxCell>
        <mxCell id="NdvFwqAAcWhJ9WmDEM3E-63" value="&lt;u&gt;hId&lt;/u&gt;" style="shape=partialRectangle;html=1;whiteSpace=wrap;connectable=0;overflow=hidden;fillColor=none;top=0;left=0;bottom=0;right=0;pointerEvents=1;fontSize=16;" parent="NdvFwqAAcWhJ9WmDEM3E-62" vertex="1">
          <mxGeometry width="111" height="40" as="geometry">
            <mxRectangle width="111" height="40" as="alternateBounds" />
          </mxGeometry>
        </mxCell>
        <mxCell id="NdvFwqAAcWhJ9WmDEM3E-64" value="status" style="shape=partialRectangle;html=1;whiteSpace=wrap;connectable=0;overflow=hidden;fillColor=none;top=0;left=0;bottom=0;right=0;pointerEvents=1;fontSize=16;" parent="NdvFwqAAcWhJ9WmDEM3E-62" vertex="1">
          <mxGeometry x="111" width="110" height="40" as="geometry">
            <mxRectangle width="110" height="40" as="alternateBounds" />
          </mxGeometry>
        </mxCell>
        <mxCell id="NdvFwqAAcWhJ9WmDEM3E-65" value="parking" style="shape=partialRectangle;html=1;whiteSpace=wrap;connectable=0;overflow=hidden;fillColor=none;top=0;left=0;bottom=0;right=0;pointerEvents=1;fontSize=16;" parent="NdvFwqAAcWhJ9WmDEM3E-62" vertex="1">
          <mxGeometry x="221" width="111" height="40" as="geometry">
            <mxRectangle width="111" height="40" as="alternateBounds" />
          </mxGeometry>
        </mxCell>
        <mxCell id="NdvFwqAAcWhJ9WmDEM3E-66" value="direction" style="shape=partialRectangle;html=1;whiteSpace=wrap;connectable=0;overflow=hidden;fillColor=none;top=0;left=0;bottom=0;right=0;pointerEvents=1;fontSize=16;" parent="NdvFwqAAcWhJ9WmDEM3E-62" vertex="1">
          <mxGeometry x="332" width="111" height="40" as="geometry">
            <mxRectangle width="111" height="40" as="alternateBounds" />
          </mxGeometry>
        </mxCell>
        <mxCell id="NdvFwqAAcWhJ9WmDEM3E-67" value="age" style="shape=partialRectangle;html=1;whiteSpace=wrap;connectable=0;overflow=hidden;fillColor=none;top=0;left=0;bottom=0;right=0;pointerEvents=1;fontSize=16;" parent="NdvFwqAAcWhJ9WmDEM3E-62" vertex="1">
          <mxGeometry x="443" width="110" height="40" as="geometry">
            <mxRectangle width="110" height="40" as="alternateBounds" />
          </mxGeometry>
        </mxCell>
        <mxCell id="NdvFwqAAcWhJ9WmDEM3E-68" value="bus" style="shape=partialRectangle;html=1;whiteSpace=wrap;connectable=0;overflow=hidden;fillColor=none;top=0;left=0;bottom=0;right=0;pointerEvents=1;fontSize=16;" parent="NdvFwqAAcWhJ9WmDEM3E-62" vertex="1">
          <mxGeometry x="553" width="95" height="40" as="geometry">
            <mxRectangle width="95" height="40" as="alternateBounds" />
          </mxGeometry>
        </mxCell>
        <mxCell id="NdvFwqAAcWhJ9WmDEM3E-69" value="train" style="shape=partialRectangle;html=1;whiteSpace=wrap;connectable=0;overflow=hidden;fillColor=none;top=0;left=0;bottom=0;right=0;pointerEvents=1;fontSize=16;" parent="NdvFwqAAcWhJ9WmDEM3E-62" vertex="1">
          <mxGeometry x="648" width="123" height="40" as="geometry">
            <mxRectangle width="123" height="40" as="alternateBounds" />
          </mxGeometry>
        </mxCell>
        <mxCell id="NdvFwqAAcWhJ9WmDEM3E-70" value="mrt" style="shape=partialRectangle;html=1;whiteSpace=wrap;connectable=0;overflow=hidden;fillColor=none;top=0;left=0;bottom=0;right=0;pointerEvents=1;fontSize=16;" parent="NdvFwqAAcWhJ9WmDEM3E-62" vertex="1">
          <mxGeometry x="771" width="110" height="40" as="geometry">
            <mxRectangle width="110" height="40" as="alternateBounds" />
          </mxGeometry>
        </mxCell>
        <mxCell id="NdvFwqAAcWhJ9WmDEM3E-71" value="security" style="shape=partialRectangle;html=1;whiteSpace=wrap;connectable=0;overflow=hidden;fillColor=none;top=0;left=0;bottom=0;right=0;pointerEvents=1;fontSize=16;" parent="NdvFwqAAcWhJ9WmDEM3E-62" vertex="1">
          <mxGeometry x="881" width="111" height="40" as="geometry">
            <mxRectangle width="111" height="40" as="alternateBounds" />
          </mxGeometry>
        </mxCell>
        <mxCell id="NdvFwqAAcWhJ9WmDEM3E-72" value="management" style="shape=partialRectangle;html=1;whiteSpace=wrap;connectable=0;overflow=hidden;fillColor=none;top=0;left=0;bottom=0;right=0;pointerEvents=1;fontSize=16;" parent="NdvFwqAAcWhJ9WmDEM3E-62" vertex="1">
          <mxGeometry x="992" width="110" height="40" as="geometry">
            <mxRectangle width="110" height="40" as="alternateBounds" />
          </mxGeometry>
        </mxCell>
        <mxCell id="NdvFwqAAcWhJ9WmDEM3E-76" value="&lt;b&gt;&lt;font style=&quot;font-size: 14px;&quot;&gt;S_detail&lt;/font&gt;&lt;/b&gt;" style="text;html=1;align=center;verticalAlign=middle;whiteSpace=wrap;rounded=0;fillColor=none;" parent="NdvFwqAAcWhJ9WmDEM3E-60" vertex="1">
          <mxGeometry x="30" width="80" height="40" as="geometry" />
        </mxCell>
        <mxCell id="ZAZMOjvzsu7jSgVwGaOS-82" value="" style="shape=table;startSize=0;container=1;collapsible=0;childLayout=tableLayout;fontSize=16;fillColor=none;" parent="1" vertex="1">
          <mxGeometry x="950" y="690" width="774" height="40" as="geometry" />
        </mxCell>
        <mxCell id="ZAZMOjvzsu7jSgVwGaOS-83" value="" style="shape=tableRow;horizontal=0;startSize=0;swimlaneHead=0;swimlaneBody=0;top=0;left=0;bottom=0;right=0;collapsible=0;dropTarget=0;points=[[0,0.5],[1,0.5]];portConstraint=eastwest;fontSize=16;fillColor=none;" parent="ZAZMOjvzsu7jSgVwGaOS-82" vertex="1">
          <mxGeometry width="774" height="40" as="geometry" />
        </mxCell>
        <mxCell id="ZAZMOjvzsu7jSgVwGaOS-84" value="&lt;u&gt;hId&lt;/u&gt;" style="shape=partialRectangle;html=1;whiteSpace=wrap;connectable=0;overflow=hidden;top=0;left=0;bottom=0;right=0;pointerEvents=1;fontSize=16;fillColor=none;" parent="ZAZMOjvzsu7jSgVwGaOS-83" vertex="1">
          <mxGeometry width="190" height="40" as="geometry">
            <mxRectangle width="190" height="40" as="alternateBounds" />
          </mxGeometry>
        </mxCell>
        <mxCell id="ZAZMOjvzsu7jSgVwGaOS-85" value="status" style="shape=partialRectangle;html=1;whiteSpace=wrap;connectable=0;overflow=hidden;top=0;left=0;bottom=0;right=0;pointerEvents=1;fontSize=16;fillColor=none;" parent="ZAZMOjvzsu7jSgVwGaOS-83" vertex="1">
          <mxGeometry x="190" width="68" height="40" as="geometry">
            <mxRectangle width="68" height="40" as="alternateBounds" />
          </mxGeometry>
        </mxCell>
        <mxCell id="ZAZMOjvzsu7jSgVwGaOS-86" value="title" style="shape=partialRectangle;html=1;whiteSpace=wrap;connectable=0;overflow=hidden;top=0;left=0;bottom=0;right=0;pointerEvents=1;fontSize=16;fillColor=none;" parent="ZAZMOjvzsu7jSgVwGaOS-83" vertex="1">
          <mxGeometry x="258" width="129" height="40" as="geometry">
            <mxRectangle width="129" height="40" as="alternateBounds" />
          </mxGeometry>
        </mxCell>
        <mxCell id="ZAZMOjvzsu7jSgVwGaOS-87" value="available" style="shape=partialRectangle;html=1;whiteSpace=wrap;connectable=0;overflow=hidden;top=0;left=0;bottom=0;right=0;pointerEvents=1;fontSize=16;fillColor=none;" parent="ZAZMOjvzsu7jSgVwGaOS-83" vertex="1">
          <mxGeometry x="387" width="129" height="40" as="geometry">
            <mxRectangle width="129" height="40" as="alternateBounds" />
          </mxGeometry>
        </mxCell>
        <mxCell id="ZAZMOjvzsu7jSgVwGaOS-88" value="region" style="shape=partialRectangle;html=1;whiteSpace=wrap;connectable=0;overflow=hidden;top=0;left=0;bottom=0;right=0;pointerEvents=1;fontSize=16;fillColor=none;" parent="ZAZMOjvzsu7jSgVwGaOS-83" vertex="1">
          <mxGeometry x="516" width="129" height="40" as="geometry">
            <mxRectangle width="129" height="40" as="alternateBounds" />
          </mxGeometry>
        </mxCell>
        <mxCell id="Qjq2nD4uYPOMThQw_e3E-1" value="mId" style="shape=partialRectangle;html=1;whiteSpace=wrap;connectable=0;overflow=hidden;top=0;left=0;bottom=0;right=0;pointerEvents=1;fontSize=16;fillColor=none;" vertex="1" parent="ZAZMOjvzsu7jSgVwGaOS-83">
          <mxGeometry x="645" width="129" height="40" as="geometry">
            <mxRectangle width="129" height="40" as="alternateBounds" />
          </mxGeometry>
        </mxCell>
        <mxCell id="ZAZMOjvzsu7jSgVwGaOS-117" value="&lt;b style=&quot;font-size: 14px;&quot;&gt;House&lt;/b&gt;" style="text;html=1;align=center;verticalAlign=middle;whiteSpace=wrap;rounded=0;fontSize=14;fillColor=none;" parent="1" vertex="1">
          <mxGeometry x="850" y="690" width="80" height="40" as="geometry" />
        </mxCell>
        <mxCell id="NdvFwqAAcWhJ9WmDEM3E-78" value="" style="endArrow=classic;html=1;rounded=0;edgeStyle=orthogonalEdgeStyle;fillColor=none;exitX=0.045;exitY=0;exitDx=0;exitDy=0;exitPerimeter=0;entryX=0.183;entryY=1.026;entryDx=0;entryDy=0;entryPerimeter=0;" parent="1" source="ZAZMOjvzsu7jSgVwGaOS-165" target="ZAZMOjvzsu7jSgVwGaOS-83" edge="1">
          <mxGeometry width="50" height="50" relative="1" as="geometry">
            <mxPoint x="1250" y="950" as="sourcePoint" />
            <mxPoint x="1117" y="740" as="targetPoint" />
            <Array as="points">
              <mxPoint x="1260" y="850" />
              <mxPoint x="1091" y="850" />
              <mxPoint x="1091" y="740" />
              <mxPoint x="1092" y="740" />
            </Array>
          </mxGeometry>
        </mxCell>
        <mxCell id="NdvFwqAAcWhJ9WmDEM3E-18" value="" style="endArrow=classic;html=1;rounded=0;exitX=0.014;exitY=0.017;exitDx=0;exitDy=0;exitPerimeter=0;entryX=0.094;entryY=1.008;entryDx=0;entryDy=0;entryPerimeter=0;fillColor=none;" parent="1" source="ZAZMOjvzsu7jSgVwGaOS-284" edge="1">
          <mxGeometry width="50" height="50" relative="1" as="geometry">
            <mxPoint x="959.9999999999998" y="1110" as="sourcePoint" />
            <mxPoint x="962.0559999999998" y="740.8" as="targetPoint" />
          </mxGeometry>
        </mxCell>
        <mxCell id="NdvFwqAAcWhJ9WmDEM3E-81" value="" style="endArrow=classic;html=1;rounded=0;exitX=0.016;exitY=-0.011;exitDx=0;exitDy=0;exitPerimeter=0;fillColor=none;edgeStyle=orthogonalEdgeStyle;entryX=0.156;entryY=0.965;entryDx=0;entryDy=0;entryPerimeter=0;" parent="1" source="NdvFwqAAcWhJ9WmDEM3E-62" target="ZAZMOjvzsu7jSgVwGaOS-83" edge="1">
          <mxGeometry width="50" height="50" relative="1" as="geometry">
            <mxPoint x="969.9999999999998" y="1120" as="sourcePoint" />
            <mxPoint x="1070" y="770" as="targetPoint" />
            <Array as="points">
              <mxPoint x="1224" y="930" />
              <mxPoint x="1071" y="930" />
            </Array>
          </mxGeometry>
        </mxCell>
        <mxCell id="NdvFwqAAcWhJ9WmDEM3E-84" value="" style="group;fillColor=none;" parent="1" vertex="1" connectable="0">
          <mxGeometry x="1040" y="1040" width="1313" height="40" as="geometry" />
        </mxCell>
        <mxCell id="NdvFwqAAcWhJ9WmDEM3E-1" value="" style="shape=table;startSize=0;container=1;collapsible=0;childLayout=tableLayout;fontSize=16;fillColor=none;" parent="NdvFwqAAcWhJ9WmDEM3E-84" vertex="1">
          <mxGeometry x="100" width="1213" height="40" as="geometry" />
        </mxCell>
        <mxCell id="NdvFwqAAcWhJ9WmDEM3E-2" value="" style="shape=tableRow;horizontal=0;startSize=0;swimlaneHead=0;swimlaneBody=0;top=0;left=0;bottom=0;right=0;collapsible=0;dropTarget=0;fillColor=none;points=[[0,0.5],[1,0.5]];portConstraint=eastwest;fontSize=16;" parent="NdvFwqAAcWhJ9WmDEM3E-1" vertex="1">
          <mxGeometry width="1213" height="40" as="geometry" />
        </mxCell>
        <mxCell id="NdvFwqAAcWhJ9WmDEM3E-83" value="&lt;u&gt;hId&lt;/u&gt;" style="shape=partialRectangle;html=1;whiteSpace=wrap;connectable=0;overflow=hidden;fillColor=none;top=0;left=0;bottom=0;right=0;pointerEvents=1;fontSize=16;" parent="NdvFwqAAcWhJ9WmDEM3E-2" vertex="1">
          <mxGeometry width="94" height="40" as="geometry">
            <mxRectangle width="94" height="40" as="alternateBounds" />
          </mxGeometry>
        </mxCell>
        <mxCell id="NdvFwqAAcWhJ9WmDEM3E-3" value="washer" style="shape=partialRectangle;html=1;whiteSpace=wrap;connectable=0;overflow=hidden;fillColor=none;top=0;left=0;bottom=0;right=0;pointerEvents=1;fontSize=16;" parent="NdvFwqAAcWhJ9WmDEM3E-2" vertex="1">
          <mxGeometry x="94" width="94" height="40" as="geometry">
            <mxRectangle width="94" height="40" as="alternateBounds" />
          </mxGeometry>
        </mxCell>
        <mxCell id="NdvFwqAAcWhJ9WmDEM3E-4" value="lift" style="shape=partialRectangle;html=1;whiteSpace=wrap;connectable=0;overflow=hidden;fillColor=none;top=0;left=0;bottom=0;right=0;pointerEvents=1;fontSize=16;" parent="NdvFwqAAcWhJ9WmDEM3E-2" vertex="1">
          <mxGeometry x="188" width="94" height="40" as="geometry">
            <mxRectangle width="94" height="40" as="alternateBounds" />
          </mxGeometry>
        </mxCell>
        <mxCell id="NdvFwqAAcWhJ9WmDEM3E-5" value="tv" style="shape=partialRectangle;html=1;whiteSpace=wrap;connectable=0;overflow=hidden;fillColor=none;top=0;left=0;bottom=0;right=0;pointerEvents=1;fontSize=16;" parent="NdvFwqAAcWhJ9WmDEM3E-2" vertex="1">
          <mxGeometry x="282" width="93" height="40" as="geometry">
            <mxRectangle width="93" height="40" as="alternateBounds" />
          </mxGeometry>
        </mxCell>
        <mxCell id="NdvFwqAAcWhJ9WmDEM3E-6" value="sofa" style="shape=partialRectangle;html=1;whiteSpace=wrap;connectable=0;overflow=hidden;fillColor=none;top=0;left=0;bottom=0;right=0;pointerEvents=1;fontSize=16;" parent="NdvFwqAAcWhJ9WmDEM3E-2" vertex="1">
          <mxGeometry x="375" width="95" height="40" as="geometry">
            <mxRectangle width="95" height="40" as="alternateBounds" />
          </mxGeometry>
        </mxCell>
        <mxCell id="NdvFwqAAcWhJ9WmDEM3E-7" value="wifi" style="shape=partialRectangle;html=1;whiteSpace=wrap;connectable=0;overflow=hidden;fillColor=none;top=0;left=0;bottom=0;right=0;pointerEvents=1;fontSize=16;" parent="NdvFwqAAcWhJ9WmDEM3E-2" vertex="1">
          <mxGeometry x="470" width="93" height="40" as="geometry">
            <mxRectangle width="93" height="40" as="alternateBounds" />
          </mxGeometry>
        </mxCell>
        <mxCell id="NdvFwqAAcWhJ9WmDEM3E-8" value="bed" style="shape=partialRectangle;html=1;whiteSpace=wrap;connectable=0;overflow=hidden;fillColor=none;top=0;left=0;bottom=0;right=0;pointerEvents=1;fontSize=16;" parent="NdvFwqAAcWhJ9WmDEM3E-2" vertex="1">
          <mxGeometry x="563" width="91" height="40" as="geometry">
            <mxRectangle width="91" height="40" as="alternateBounds" />
          </mxGeometry>
        </mxCell>
        <mxCell id="NdvFwqAAcWhJ9WmDEM3E-9" value="cabinet" style="shape=partialRectangle;html=1;whiteSpace=wrap;connectable=0;overflow=hidden;fillColor=none;top=0;left=0;bottom=0;right=0;pointerEvents=1;fontSize=16;" parent="NdvFwqAAcWhJ9WmDEM3E-2" vertex="1">
          <mxGeometry x="654" width="91" height="40" as="geometry">
            <mxRectangle width="91" height="40" as="alternateBounds" />
          </mxGeometry>
        </mxCell>
        <mxCell id="NdvFwqAAcWhJ9WmDEM3E-10" value="refrigator" style="shape=partialRectangle;html=1;whiteSpace=wrap;connectable=0;overflow=hidden;fillColor=none;top=0;left=0;bottom=0;right=0;pointerEvents=1;fontSize=16;" parent="NdvFwqAAcWhJ9WmDEM3E-2" vertex="1">
          <mxGeometry x="745" width="93" height="40" as="geometry">
            <mxRectangle width="93" height="40" as="alternateBounds" />
          </mxGeometry>
        </mxCell>
        <mxCell id="NdvFwqAAcWhJ9WmDEM3E-11" value="heater" style="shape=partialRectangle;html=1;whiteSpace=wrap;connectable=0;overflow=hidden;fillColor=none;top=0;left=0;bottom=0;right=0;pointerEvents=1;fontSize=16;" parent="NdvFwqAAcWhJ9WmDEM3E-2" vertex="1">
          <mxGeometry x="838" width="94" height="40" as="geometry">
            <mxRectangle width="94" height="40" as="alternateBounds" />
          </mxGeometry>
        </mxCell>
        <mxCell id="NdvFwqAAcWhJ9WmDEM3E-12" value="gas" style="shape=partialRectangle;html=1;whiteSpace=wrap;connectable=0;overflow=hidden;fillColor=none;top=0;left=0;bottom=0;right=0;pointerEvents=1;fontSize=16;" parent="NdvFwqAAcWhJ9WmDEM3E-2" vertex="1">
          <mxGeometry x="932" width="93" height="40" as="geometry">
            <mxRectangle width="93" height="40" as="alternateBounds" />
          </mxGeometry>
        </mxCell>
        <mxCell id="NdvFwqAAcWhJ9WmDEM3E-13" value="aircond" style="shape=partialRectangle;html=1;whiteSpace=wrap;connectable=0;overflow=hidden;fillColor=none;top=0;left=0;bottom=0;right=0;pointerEvents=1;fontSize=16;" parent="NdvFwqAAcWhJ9WmDEM3E-2" vertex="1">
          <mxGeometry x="1025" width="95" height="40" as="geometry">
            <mxRectangle width="95" height="40" as="alternateBounds" />
          </mxGeometry>
        </mxCell>
        <mxCell id="NdvFwqAAcWhJ9WmDEM3E-14" value="channel4" style="shape=partialRectangle;html=1;whiteSpace=wrap;connectable=0;overflow=hidden;fillColor=none;top=0;left=0;bottom=0;right=0;pointerEvents=1;fontSize=16;" parent="NdvFwqAAcWhJ9WmDEM3E-2" vertex="1">
          <mxGeometry x="1120" width="93" height="40" as="geometry">
            <mxRectangle width="93" height="40" as="alternateBounds" />
          </mxGeometry>
        </mxCell>
        <mxCell id="NdvFwqAAcWhJ9WmDEM3E-82" value="&lt;b&gt;&lt;font style=&quot;font-size: 14px;&quot;&gt;Equipment&lt;/font&gt;&lt;/b&gt;" style="text;html=1;align=center;verticalAlign=middle;whiteSpace=wrap;rounded=0;fillColor=none;" parent="NdvFwqAAcWhJ9WmDEM3E-84" vertex="1">
          <mxGeometry width="80" height="40" as="geometry" />
        </mxCell>
        <mxCell id="NdvFwqAAcWhJ9WmDEM3E-85" value="" style="endArrow=classic;html=1;rounded=0;fillColor=none;edgeStyle=orthogonalEdgeStyle;exitX=0.041;exitY=-0.003;exitDx=0;exitDy=0;exitPerimeter=0;" parent="1" source="NdvFwqAAcWhJ9WmDEM3E-2" edge="1">
          <mxGeometry width="50" height="50" relative="1" as="geometry">
            <mxPoint x="1190" y="1030" as="sourcePoint" />
            <mxPoint x="1040" y="730" as="targetPoint" />
            <Array as="points">
              <mxPoint x="1190" y="1000" />
              <mxPoint x="1040" y="1000" />
              <mxPoint x="1040" y="732" />
            </Array>
          </mxGeometry>
        </mxCell>
        <mxCell id="NdvFwqAAcWhJ9WmDEM3E-86" value="" style="endArrow=classic;html=1;rounded=0;exitX=0.948;exitY=1.042;exitDx=0;exitDy=0;exitPerimeter=0;entryX=0.23;entryY=1.024;entryDx=0;entryDy=0;entryPerimeter=0;fillColor=none;edgeStyle=orthogonalEdgeStyle;" parent="1" edge="1">
          <mxGeometry width="50" height="50" relative="1" as="geometry">
            <mxPoint x="2197.044" y="320" as="sourcePoint" />
            <mxPoint x="1128.02" y="729.2800000000001" as="targetPoint" />
            <Array as="points">
              <mxPoint x="2200" y="320" />
              <mxPoint x="2200" y="758" />
              <mxPoint x="1128" y="758" />
            </Array>
          </mxGeometry>
        </mxCell>
        <mxCell id="Qjq2nD4uYPOMThQw_e3E-2" value="" style="endArrow=classic;html=1;rounded=0;edgeStyle=orthogonalEdgeStyle;entryX=0.027;entryY=1.069;entryDx=0;entryDy=0;entryPerimeter=0;exitX=0.904;exitY=-0.061;exitDx=0;exitDy=0;exitPerimeter=0;" edge="1" parent="1" source="ZAZMOjvzsu7jSgVwGaOS-83" target="X8tlnXn0kMPN9izlXED0-18">
          <mxGeometry width="50" height="50" relative="1" as="geometry">
            <mxPoint x="1650" y="680" as="sourcePoint" />
            <mxPoint x="980" y="630" as="targetPoint" />
            <Array as="points">
              <mxPoint x="1650" y="630" />
              <mxPoint x="780" y="630" />
              <mxPoint x="780" y="460" />
              <mxPoint x="971" y="460" />
            </Array>
          </mxGeometry>
        </mxCell>
      </root>
    </mxGraphModel>
  </diagram>
</mxfile>
